<svg xmlns="http://www.w3.org/2000/svg" xmlns:xlink="http://www.w3.org/1999/xlink" viewBox="0,0,256,256" width="240px" height="240px"><g fill="none" fill-rule="nonzero" stroke="none" stroke-width="1" stroke-linecap="butt" stroke-linejoin="miter" stroke-miterlimit="10" stroke-dasharray="" stroke-dashoffset="0" font-family="none" font-weight="none" font-size="none" text-anchor="none" style="mix-blend-mode: normal"><g transform="scale(5.33333,5.33333)"><path d="M37.764,24.009h9.236l-4.621,-8.009h-9.236z" fill="#3e4ca6"></path><path d="M37.764,24.009h9.236l-4.621,-8.009z" fill="#9fa8da"></path><path d="M1,24h9.236l4.616,-8h-9.237z" fill="#4762fe"></path><path d="M10.236,24l4.616,-8h-9.237z" fill="#536dfe"></path><path d="M10.231,8l-4.616,8h9.237l4.615,-8z" fill="#8c9eff"></path><path d="M10.231,8l-4.616,8h9.237z" fill="#6d83fe"></path><path d="M10.236,24h-9.236l4.621,8.009h9.236z" fill="#303f9f"></path><path d="M19.467,40l-4.61,-7.991h-9.236l4.61,7.991z" fill="#212a82"></path><path d="M10.236,24h-9.236l4.621,8.009z" fill="#3f51b5"></path><path d="M10.231,40h9.236l4.577,-8h-9.236z" fill="#ad1457"></path><path d="M19.467,40l-4.61,-7.991l-4.626,7.991z" fill="#880e4f"></path><path d="M19.385,24l-4.577,8h9.236l4.577,-8z" fill="#d81b60"></path><path d="M19.385,24l-4.577,8h9.236z" fill="#822343"></path><path d="M19.385,24l-4.577,8h9.236z" fill="#c2185b"></path><path d="M28.533,8.009l4.61,7.991h4.621l0.005,-7.991z" fill="#f1729d"></path><path d="M33.143,16h9.236l-4.61,-7.991z" fill="#31398b"></path><path d="M23.961,16l-4.576,8h9.236l4.577,-8z" fill="#ec407a"></path><path d="M28.533,8.009l-4.572,7.991h9.237z" fill="#f06292"></path><path d="M23.961,16l-4.576,8h9.236z" fill="#e91e63"></path><path d="M28.533,40h9.236l4.621,-8h-9.236z" fill="#5c6bc0"></path><path d="M37.764,24.009l-4.61,7.991h9.236l4.61,-7.991z" fill="#7986cb"></path><path d="M37.769,40l4.621,-8h-9.236z" fill="#6472c3"></path><path d="M37.764,24.009l4.626,7.991l4.61,-7.991z" fill="#8692d0"></path></g></g></svg>